solid OpenSCAD_Model
  facet normal -1 0 0
    outer loop
      vertex -2 -2 -2
      vertex -2 -2 0
      vertex -2 52 -2
    endloop
  endfacet
  facet normal -1 0 0
    outer loop
      vertex -2 52 -2
      vertex -2 -2 0
      vertex -2 52 0
    endloop
  endfacet
  facet normal 0 -1 0
    outer loop
      vertex -2 -2 0
      vertex -2 -2 -2
      vertex 52 -2 -2
    endloop
  endfacet
  facet normal 0 -1 0
    outer loop
      vertex 52 -2 0
      vertex -2 -2 0
      vertex 52 -2 -2
    endloop
  endfacet
  facet normal 0 0 -1
    outer loop
      vertex -2 -2 -2
      vertex -2 52 -2
      vertex 52 -2 -2
    endloop
  endfacet
  facet normal 0 0 -1
    outer loop
      vertex 52 -2 -2
      vertex -2 52 -2
      vertex 52 52 -2
    endloop
  endfacet
  facet normal 0 1 0
    outer loop
      vertex -2 52 -2
      vertex -2 52 0
      vertex 52 52 -2
    endloop
  endfacet
  facet normal 0 1 0
    outer loop
      vertex 52 52 -2
      vertex -2 52 0
      vertex 52 52 0
    endloop
  endfacet
  facet normal 0 0 1
    outer loop
      vertex 0 0 0
      vertex -2 -2 0
      vertex 52 -2 0
    endloop
  endfacet
  facet normal 0 0 1
    outer loop
      vertex 0 50 0
      vertex -2 52 0
      vertex 0 0 0
    endloop
  endfacet
  facet normal 0 0 1
    outer loop
      vertex 50 0 0
      vertex 0 0 0
      vertex 52 -2 0
    endloop
  endfacet
  facet normal 0 0 1
    outer loop
      vertex -2 52 0
      vertex -2 -2 0
      vertex 0 0 0
    endloop
  endfacet
  facet normal 0 0 1
    outer loop
      vertex 52 52 0
      vertex -2 52 0
      vertex 0 50 0
    endloop
  endfacet
  facet normal 0 0 1
    outer loop
      vertex 52 52 0
      vertex 50 50 0
      vertex 52 -2 0
    endloop
  endfacet
  facet normal 0 0 1
    outer loop
      vertex 52 52 0
      vertex 0 50 0
      vertex 50 50 0
    endloop
  endfacet
  facet normal 0 0 1
    outer loop
      vertex 50 50 0
      vertex 50 0 0
      vertex 52 -2 0
    endloop
  endfacet
  facet normal 1 0 0
    outer loop
      vertex 52 -2 0
      vertex 52 -2 -2
      vertex 52 52 -2
    endloop
  endfacet
  facet normal 1 0 0
    outer loop
      vertex 52 52 0
      vertex 52 -2 0
      vertex 52 52 -2
    endloop
  endfacet
  facet normal -1 0 0
    outer loop
      vertex 0 0 0
      vertex 0 0 5
      vertex 0 50 0
    endloop
  endfacet
  facet normal -1 0 0
    outer loop
      vertex 0 50 0
      vertex 0 0 5
      vertex 0 50 5
    endloop
  endfacet
  facet normal 0 -1 0
    outer loop
      vertex 0 0 5
      vertex 0 0 0
      vertex 50 0 0
    endloop
  endfacet
  facet normal 0 -1 0
    outer loop
      vertex 50 0 5
      vertex 0 0 5
      vertex 50 0 0
    endloop
  endfacet
  facet normal 1 0 0
    outer loop
      vertex 50 0 5
      vertex 50 0 0
      vertex 50 50 0
    endloop
  endfacet
  facet normal 1 0 0
    outer loop
      vertex 50 50 5
      vertex 50 0 5
      vertex 50 50 0
    endloop
  endfacet
  facet normal 0 1 0
    outer loop
      vertex 0 50 0
      vertex 0 50 5
      vertex 50 50 0
    endloop
  endfacet
  facet normal 0 1 0
    outer loop
      vertex 50 50 0
      vertex 0 50 5
      vertex 50 50 5
    endloop
  endfacet
  facet normal 0 0 1
    outer loop
      vertex 1 1 5
      vertex 0 0 5
      vertex 50 0 5
    endloop
  endfacet
  facet normal 0 0 1
    outer loop
      vertex 16.3333 1 5
      vertex 1 1 5
      vertex 50 0 5
    endloop
  endfacet
  facet normal 0 0 1
    outer loop
      vertex 0 50 5
      vertex 0 0 5
      vertex 1 1 5
    endloop
  endfacet
  facet normal 0 0 1
    outer loop
      vertex 49 1 5
      vertex 33.6667 1 5
      vertex 50 0 5
    endloop
  endfacet
  facet normal 0 0 1
    outer loop
      vertex 0 50 5
      vertex 1 1 5
      vertex 1 16.3333 5
    endloop
  endfacet
  facet normal 0 0 1
    outer loop
      vertex 32.6667 17.3333 5
      vertex 32.6667 16.3333 5
      vertex 33.6667 16.3333 5
    endloop
  endfacet
  facet normal 0 0 1
    outer loop
      vertex 1 17.3333 5
      vertex 1 16.3333 5
      vertex 16.3333 16.3333 5
    endloop
  endfacet
  facet normal 0 0 1
    outer loop
      vertex 17.3333 1 5
      vertex 16.3333 1 5
      vertex 50 0 5
    endloop
  endfacet
  facet normal 0 0 1
    outer loop
      vertex 0 50 5
      vertex 1 16.3333 5
      vertex 1 17.3333 5
    endloop
  endfacet
  facet normal 0 0 1
    outer loop
      vertex 0 50 5
      vertex 1 17.3333 5
      vertex 1 32.6667 5
    endloop
  endfacet
  facet normal 0 0 1
    outer loop
      vertex 17.3333 1 5
      vertex 17.3333 16.3333 5
      vertex 16.3333 16.3333 5
    endloop
  endfacet
  facet normal 0 0 1
    outer loop
      vertex 1 33.6667 5
      vertex 1 49 5
      vertex 0 50 5
    endloop
  endfacet
  facet normal 0 0 1
    outer loop
      vertex 1 32.6667 5
      vertex 16.3333 32.6667 5
      vertex 1 33.6667 5
    endloop
  endfacet
  facet normal 0 0 1
    outer loop
      vertex 0 50 5
      vertex 1 32.6667 5
      vertex 1 33.6667 5
    endloop
  endfacet
  facet normal 0 0 1
    outer loop
      vertex 50 50 5
      vertex 0 50 5
      vertex 1 49 5
    endloop
  endfacet
  facet normal 0 0 1
    outer loop
      vertex 50 50 5
      vertex 1 49 5
      vertex 16.3333 49 5
    endloop
  endfacet
  facet normal 0 0 1
    outer loop
      vertex 16.3333 49 5
      vertex 16.3333 33.6667 5
      vertex 17.3333 33.6667 5
    endloop
  endfacet
  facet normal 0 0 1
    outer loop
      vertex 32.6667 1 5
      vertex 17.3333 1 5
      vertex 50 0 5
    endloop
  endfacet
  facet normal 0 0 1
    outer loop
      vertex 49 16.3333 5
      vertex 49 1 5
      vertex 50 0 5
    endloop
  endfacet
  facet normal 0 0 1
    outer loop
      vertex 16.3333 17.3333 5
      vertex 16.3333 16.3333 5
      vertex 17.3333 16.3333 5
    endloop
  endfacet
  facet normal 0 0 1
    outer loop
      vertex 17.3333 17.3333 5
      vertex 17.3333 32.6667 5
      vertex 16.3333 32.6667 5
    endloop
  endfacet
  facet normal 0 0 1
    outer loop
      vertex 17.3333 17.3333 5
      vertex 16.3333 17.3333 5
      vertex 32.6667 16.3333 5
    endloop
  endfacet
  facet normal 0 0 1
    outer loop
      vertex 33.6667 1 5
      vertex 32.6667 1 5
      vertex 50 0 5
    endloop
  endfacet
  facet normal 0 0 1
    outer loop
      vertex 16.3333 33.6667 5
      vertex 1 33.6667 5
      vertex 16.3333 32.6667 5
    endloop
  endfacet
  facet normal 0 0 1
    outer loop
      vertex 16.3333 32.6667 5
      vertex 16.3333 17.3333 5
      vertex 17.3333 17.3333 5
    endloop
  endfacet
  facet normal 0 0 1
    outer loop
      vertex 16.3333 33.6667 5
      vertex 16.3333 32.6667 5
      vertex 17.3333 32.6667 5
    endloop
  endfacet
  facet normal 0 0 1
    outer loop
      vertex 33.6667 17.3333 5
      vertex 33.6667 32.6667 5
      vertex 32.6667 32.6667 5
    endloop
  endfacet
  facet normal 0 0 1
    outer loop
      vertex 17.3333 33.6667 5
      vertex 17.3333 49 5
      vertex 16.3333 49 5
    endloop
  endfacet
  facet normal 0 0 1
    outer loop
      vertex 32.6667 32.6667 5
      vertex 32.6667 17.3333 5
      vertex 33.6667 17.3333 5
    endloop
  endfacet
  facet normal 0 0 1
    outer loop
      vertex 50 50 5
      vertex 16.3333 49 5
      vertex 17.3333 49 5
    endloop
  endfacet
  facet normal 0 0 1
    outer loop
      vertex 50 50 5
      vertex 17.3333 49 5
      vertex 32.6667 49 5
    endloop
  endfacet
  facet normal 0 0 1
    outer loop
      vertex 33.6667 33.6667 5
      vertex 32.6667 33.6667 5
      vertex 32.6667 32.6667 5
    endloop
  endfacet
  facet normal 0 0 1
    outer loop
      vertex 33.6667 49 5
      vertex 32.6667 49 5
      vertex 32.6667 33.6667 5
    endloop
  endfacet
  facet normal 0 0 1
    outer loop
      vertex 16.3333 17.3333 5
      vertex 1 17.3333 5
      vertex 16.3333 16.3333 5
    endloop
  endfacet
  facet normal 0 0 1
    outer loop
      vertex 33.6667 16.3333 5
      vertex 33.6667 17.3333 5
      vertex 32.6667 17.3333 5
    endloop
  endfacet
  facet normal 0 0 1
    outer loop
      vertex 32.6667 33.6667 5
      vertex 17.3333 33.6667 5
      vertex 32.6667 32.6667 5
    endloop
  endfacet
  facet normal 0 0 1
    outer loop
      vertex 50 50 5
      vertex 49 16.3333 5
      vertex 50 0 5
    endloop
  endfacet
  facet normal 0 0 1
    outer loop
      vertex 33.6667 16.3333 5
      vertex 49 16.3333 5
      vertex 33.6667 17.3333 5
    endloop
  endfacet
  facet normal 0 0 1
    outer loop
      vertex 49 17.3333 5
      vertex 33.6667 17.3333 5
      vertex 49 16.3333 5
    endloop
  endfacet
  facet normal 0 0 1
    outer loop
      vertex 49 49 5
      vertex 49 33.6667 5
      vertex 50 50 5
    endloop
  endfacet
  facet normal 0 0 1
    outer loop
      vertex 49 33.6667 5
      vertex 33.6667 33.6667 5
      vertex 33.6667 32.6667 5
    endloop
  endfacet
  facet normal 0 0 1
    outer loop
      vertex 33.6667 33.6667 5
      vertex 32.6667 32.6667 5
      vertex 33.6667 32.6667 5
    endloop
  endfacet
  facet normal 0 0 1
    outer loop
      vertex 49 33.6667 5
      vertex 33.6667 32.6667 5
      vertex 49 32.6667 5
    endloop
  endfacet
  facet normal 0 0 1
    outer loop
      vertex 50 50 5
      vertex 49 17.3333 5
      vertex 49 16.3333 5
    endloop
  endfacet
  facet normal 0 0 1
    outer loop
      vertex 50 50 5
      vertex 49 32.6667 5
      vertex 49 17.3333 5
    endloop
  endfacet
  facet normal 0 0 1
    outer loop
      vertex 33.6667 49 5
      vertex 49 49 5
      vertex 50 50 5
    endloop
  endfacet
  facet normal 0 0 1
    outer loop
      vertex 50 50 5
      vertex 32.6667 49 5
      vertex 33.6667 49 5
    endloop
  endfacet
  facet normal 0 0 1
    outer loop
      vertex 50 50 5
      vertex 49 33.6667 5
      vertex 49 32.6667 5
    endloop
  endfacet
  facet normal 0 0 1
    outer loop
      vertex 33.6667 33.6667 5
      vertex 33.6667 49 5
      vertex 32.6667 33.6667 5
    endloop
  endfacet
  facet normal 0 0 1
    outer loop
      vertex 17.3333 16.3333 5
      vertex 32.6667 16.3333 5
      vertex 16.3333 17.3333 5
    endloop
  endfacet
  facet normal 0 0 1
    outer loop
      vertex 32.6667 16.3333 5
      vertex 32.6667 1 5
      vertex 33.6667 1 5
    endloop
  endfacet
  facet normal 0 0 1
    outer loop
      vertex 32.6667 17.3333 5
      vertex 17.3333 17.3333 5
      vertex 32.6667 16.3333 5
    endloop
  endfacet
  facet normal 0 0 1
    outer loop
      vertex 16.3333 16.3333 5
      vertex 16.3333 1 5
      vertex 17.3333 1 5
    endloop
  endfacet
  facet normal 0 0 1
    outer loop
      vertex 17.3333 32.6667 5
      vertex 17.3333 33.6667 5
      vertex 16.3333 33.6667 5
    endloop
  endfacet
  facet normal 0 0 1
    outer loop
      vertex 33.6667 1 5
      vertex 33.6667 16.3333 5
      vertex 32.6667 16.3333 5
    endloop
  endfacet
  facet normal 0 0 1
    outer loop
      vertex 17.3333 32.6667 5
      vertex 32.6667 32.6667 5
      vertex 17.3333 33.6667 5
    endloop
  endfacet
  facet normal 1 0 0
    outer loop
      vertex 1 1 5
      vertex 1 1 0
      vertex 1 16.3333 0
    endloop
  endfacet
  facet normal 1 0 0
    outer loop
      vertex 1 16.3333 5
      vertex 1 1 5
      vertex 1 16.3333 0
    endloop
  endfacet
  facet normal 0 1 0
    outer loop
      vertex 1 1 0
      vertex 1 1 5
      vertex 16.3333 1 0
    endloop
  endfacet
  facet normal 0 1 0
    outer loop
      vertex 16.3333 1 0
      vertex 1 1 5
      vertex 16.3333 1 5
    endloop
  endfacet
  facet normal -1 0 0
    outer loop
      vertex 16.3333 1 0
      vertex 16.3333 1 5
      vertex 16.3333 16.3333 0
    endloop
  endfacet
  facet normal -1 0 0
    outer loop
      vertex 16.3333 16.3333 0
      vertex 16.3333 1 5
      vertex 16.3333 16.3333 5
    endloop
  endfacet
  facet normal 0 -1 0
    outer loop
      vertex 1 16.3333 5
      vertex 1 16.3333 0
      vertex 16.3333 16.3333 0
    endloop
  endfacet
  facet normal 0 -1 0
    outer loop
      vertex 16.3333 16.3333 5
      vertex 1 16.3333 5
      vertex 16.3333 16.3333 0
    endloop
  endfacet
  facet normal 1 0 0
    outer loop
      vertex 1 17.3333 5
      vertex 1 17.3333 0
      vertex 1 32.6667 0
    endloop
  endfacet
  facet normal 1 0 0
    outer loop
      vertex 1 32.6667 5
      vertex 1 17.3333 5
      vertex 1 32.6667 0
    endloop
  endfacet
  facet normal 0 1 0
    outer loop
      vertex 1 17.3333 0
      vertex 1 17.3333 5
      vertex 16.3333 17.3333 0
    endloop
  endfacet
  facet normal 0 1 0
    outer loop
      vertex 16.3333 17.3333 0
      vertex 1 17.3333 5
      vertex 16.3333 17.3333 5
    endloop
  endfacet
  facet normal -1 0 0
    outer loop
      vertex 16.3333 17.3333 0
      vertex 16.3333 17.3333 5
      vertex 16.3333 32.6667 0
    endloop
  endfacet
  facet normal -1 0 0
    outer loop
      vertex 16.3333 32.6667 0
      vertex 16.3333 17.3333 5
      vertex 16.3333 32.6667 5
    endloop
  endfacet
  facet normal 0 -1 0
    outer loop
      vertex 1 32.6667 5
      vertex 1 32.6667 0
      vertex 16.3333 32.6667 0
    endloop
  endfacet
  facet normal 0 -1 0
    outer loop
      vertex 16.3333 32.6667 5
      vertex 1 32.6667 5
      vertex 16.3333 32.6667 0
    endloop
  endfacet
  facet normal 1 0 0
    outer loop
      vertex 1 33.6667 5
      vertex 1 33.6667 0
      vertex 1 49 0
    endloop
  endfacet
  facet normal 1 0 0
    outer loop
      vertex 1 49 5
      vertex 1 33.6667 5
      vertex 1 49 0
    endloop
  endfacet
  facet normal 0 1 0
    outer loop
      vertex 1 33.6667 0
      vertex 1 33.6667 5
      vertex 16.3333 33.6667 0
    endloop
  endfacet
  facet normal 0 1 0
    outer loop
      vertex 16.3333 33.6667 0
      vertex 1 33.6667 5
      vertex 16.3333 33.6667 5
    endloop
  endfacet
  facet normal -1 0 0
    outer loop
      vertex 16.3333 33.6667 0
      vertex 16.3333 33.6667 5
      vertex 16.3333 49 0
    endloop
  endfacet
  facet normal -1 0 0
    outer loop
      vertex 16.3333 49 0
      vertex 16.3333 33.6667 5
      vertex 16.3333 49 5
    endloop
  endfacet
  facet normal 0 -1 0
    outer loop
      vertex 1 49 5
      vertex 1 49 0
      vertex 16.3333 49 0
    endloop
  endfacet
  facet normal 0 -1 0
    outer loop
      vertex 16.3333 49 5
      vertex 1 49 5
      vertex 16.3333 49 0
    endloop
  endfacet
  facet normal 1 0 0
    outer loop
      vertex 17.3333 1 5
      vertex 17.3333 1 0
      vertex 17.3333 16.3333 0
    endloop
  endfacet
  facet normal 1 0 0
    outer loop
      vertex 17.3333 16.3333 5
      vertex 17.3333 1 5
      vertex 17.3333 16.3333 0
    endloop
  endfacet
  facet normal 0 1 0
    outer loop
      vertex 17.3333 1 0
      vertex 17.3333 1 5
      vertex 32.6667 1 0
    endloop
  endfacet
  facet normal 0 1 0
    outer loop
      vertex 32.6667 1 0
      vertex 17.3333 1 5
      vertex 32.6667 1 5
    endloop
  endfacet
  facet normal -1 0 0
    outer loop
      vertex 32.6667 1 0
      vertex 32.6667 1 5
      vertex 32.6667 16.3333 0
    endloop
  endfacet
  facet normal -1 0 0
    outer loop
      vertex 32.6667 16.3333 0
      vertex 32.6667 1 5
      vertex 32.6667 16.3333 5
    endloop
  endfacet
  facet normal 0 -1 0
    outer loop
      vertex 17.3333 16.3333 5
      vertex 17.3333 16.3333 0
      vertex 32.6667 16.3333 0
    endloop
  endfacet
  facet normal 0 -1 0
    outer loop
      vertex 32.6667 16.3333 5
      vertex 17.3333 16.3333 5
      vertex 32.6667 16.3333 0
    endloop
  endfacet
  facet normal 1 0 0
    outer loop
      vertex 17.3333 17.3333 5
      vertex 17.3333 17.3333 0
      vertex 17.3333 32.6667 0
    endloop
  endfacet
  facet normal 1 0 0
    outer loop
      vertex 17.3333 32.6667 5
      vertex 17.3333 17.3333 5
      vertex 17.3333 32.6667 0
    endloop
  endfacet
  facet normal 0 1 0
    outer loop
      vertex 17.3333 17.3333 0
      vertex 17.3333 17.3333 5
      vertex 32.6667 17.3333 0
    endloop
  endfacet
  facet normal 0 1 0
    outer loop
      vertex 32.6667 17.3333 0
      vertex 17.3333 17.3333 5
      vertex 32.6667 17.3333 5
    endloop
  endfacet
  facet normal -1 0 0
    outer loop
      vertex 32.6667 17.3333 0
      vertex 32.6667 17.3333 5
      vertex 32.6667 32.6667 0
    endloop
  endfacet
  facet normal -1 0 0
    outer loop
      vertex 32.6667 32.6667 0
      vertex 32.6667 17.3333 5
      vertex 32.6667 32.6667 5
    endloop
  endfacet
  facet normal 0 -1 0
    outer loop
      vertex 17.3333 32.6667 5
      vertex 17.3333 32.6667 0
      vertex 32.6667 32.6667 0
    endloop
  endfacet
  facet normal 0 -1 0
    outer loop
      vertex 32.6667 32.6667 5
      vertex 17.3333 32.6667 5
      vertex 32.6667 32.6667 0
    endloop
  endfacet
  facet normal 1 0 0
    outer loop
      vertex 17.3333 33.6667 5
      vertex 17.3333 33.6667 0
      vertex 17.3333 49 0
    endloop
  endfacet
  facet normal 1 0 0
    outer loop
      vertex 17.3333 49 5
      vertex 17.3333 33.6667 5
      vertex 17.3333 49 0
    endloop
  endfacet
  facet normal 0 1 0
    outer loop
      vertex 17.3333 33.6667 0
      vertex 17.3333 33.6667 5
      vertex 32.6667 33.6667 0
    endloop
  endfacet
  facet normal 0 1 0
    outer loop
      vertex 32.6667 33.6667 0
      vertex 17.3333 33.6667 5
      vertex 32.6667 33.6667 5
    endloop
  endfacet
  facet normal -1 0 0
    outer loop
      vertex 32.6667 33.6667 0
      vertex 32.6667 33.6667 5
      vertex 32.6667 49 0
    endloop
  endfacet
  facet normal -1 0 0
    outer loop
      vertex 32.6667 49 0
      vertex 32.6667 33.6667 5
      vertex 32.6667 49 5
    endloop
  endfacet
  facet normal 0 -1 0
    outer loop
      vertex 17.3333 49 5
      vertex 17.3333 49 0
      vertex 32.6667 49 0
    endloop
  endfacet
  facet normal 0 -1 0
    outer loop
      vertex 32.6667 49 5
      vertex 17.3333 49 5
      vertex 32.6667 49 0
    endloop
  endfacet
  facet normal 1 0 0
    outer loop
      vertex 33.6667 1 5
      vertex 33.6667 1 0
      vertex 33.6667 16.3333 0
    endloop
  endfacet
  facet normal 1 0 0
    outer loop
      vertex 33.6667 16.3333 5
      vertex 33.6667 1 5
      vertex 33.6667 16.3333 0
    endloop
  endfacet
  facet normal 0 1 0
    outer loop
      vertex 33.6667 1 0
      vertex 33.6667 1 5
      vertex 49 1 0
    endloop
  endfacet
  facet normal 0 1 0
    outer loop
      vertex 49 1 0
      vertex 33.6667 1 5
      vertex 49 1 5
    endloop
  endfacet
  facet normal -1 0 0
    outer loop
      vertex 49 1 0
      vertex 49 1 5
      vertex 49 16.3333 0
    endloop
  endfacet
  facet normal -1 0 0
    outer loop
      vertex 49 16.3333 0
      vertex 49 1 5
      vertex 49 16.3333 5
    endloop
  endfacet
  facet normal 0 -1 0
    outer loop
      vertex 33.6667 16.3333 5
      vertex 33.6667 16.3333 0
      vertex 49 16.3333 0
    endloop
  endfacet
  facet normal 0 -1 0
    outer loop
      vertex 49 16.3333 5
      vertex 33.6667 16.3333 5
      vertex 49 16.3333 0
    endloop
  endfacet
  facet normal 1 0 0
    outer loop
      vertex 33.6667 17.3333 5
      vertex 33.6667 17.3333 0
      vertex 33.6667 32.6667 0
    endloop
  endfacet
  facet normal 1 0 0
    outer loop
      vertex 33.6667 32.6667 5
      vertex 33.6667 17.3333 5
      vertex 33.6667 32.6667 0
    endloop
  endfacet
  facet normal 0 1 0
    outer loop
      vertex 33.6667 17.3333 0
      vertex 33.6667 17.3333 5
      vertex 49 17.3333 0
    endloop
  endfacet
  facet normal 0 1 0
    outer loop
      vertex 49 17.3333 0
      vertex 33.6667 17.3333 5
      vertex 49 17.3333 5
    endloop
  endfacet
  facet normal -1 0 0
    outer loop
      vertex 49 17.3333 0
      vertex 49 17.3333 5
      vertex 49 32.6667 0
    endloop
  endfacet
  facet normal -1 0 0
    outer loop
      vertex 49 32.6667 0
      vertex 49 17.3333 5
      vertex 49 32.6667 5
    endloop
  endfacet
  facet normal 0 -1 0
    outer loop
      vertex 33.6667 32.6667 5
      vertex 33.6667 32.6667 0
      vertex 49 32.6667 0
    endloop
  endfacet
  facet normal 0 -1 0
    outer loop
      vertex 49 32.6667 5
      vertex 33.6667 32.6667 5
      vertex 49 32.6667 0
    endloop
  endfacet
  facet normal 1 0 0
    outer loop
      vertex 33.6667 33.6667 5
      vertex 33.6667 33.6667 0
      vertex 33.6667 49 0
    endloop
  endfacet
  facet normal 1 0 0
    outer loop
      vertex 33.6667 49 5
      vertex 33.6667 33.6667 5
      vertex 33.6667 49 0
    endloop
  endfacet
  facet normal 0 1 0
    outer loop
      vertex 33.6667 33.6667 0
      vertex 33.6667 33.6667 5
      vertex 49 33.6667 0
    endloop
  endfacet
  facet normal 0 1 0
    outer loop
      vertex 49 33.6667 0
      vertex 33.6667 33.6667 5
      vertex 49 33.6667 5
    endloop
  endfacet
  facet normal -1 0 0
    outer loop
      vertex 49 33.6667 0
      vertex 49 33.6667 5
      vertex 49 49 0
    endloop
  endfacet
  facet normal -1 0 0
    outer loop
      vertex 49 49 0
      vertex 49 33.6667 5
      vertex 49 49 5
    endloop
  endfacet
  facet normal 0 -1 0
    outer loop
      vertex 33.6667 49 5
      vertex 33.6667 49 0
      vertex 49 49 0
    endloop
  endfacet
  facet normal 0 -1 0
    outer loop
      vertex 49 49 5
      vertex 33.6667 49 5
      vertex 49 49 0
    endloop
  endfacet
  facet normal 0 0 1
    outer loop
      vertex 1 16.3333 0
      vertex 1 1 0
      vertex 16.3333 1 0
    endloop
  endfacet
  facet normal 0 0 1
    outer loop
      vertex 16.3333 16.3333 0
      vertex 1 16.3333 0
      vertex 16.3333 1 0
    endloop
  endfacet
  facet normal 0 0 1
    outer loop
      vertex 1 32.6667 0
      vertex 1 17.3333 0
      vertex 16.3333 17.3333 0
    endloop
  endfacet
  facet normal 0 0 1
    outer loop
      vertex 16.3333 32.6667 0
      vertex 1 32.6667 0
      vertex 16.3333 17.3333 0
    endloop
  endfacet
  facet normal 0 0 1
    outer loop
      vertex 1 49 0
      vertex 1 33.6667 0
      vertex 16.3333 33.6667 0
    endloop
  endfacet
  facet normal 0 0 1
    outer loop
      vertex 16.3333 49 0
      vertex 1 49 0
      vertex 16.3333 33.6667 0
    endloop
  endfacet
  facet normal 0 0 1
    outer loop
      vertex 17.3333 16.3333 0
      vertex 17.3333 1 0
      vertex 32.6667 1 0
    endloop
  endfacet
  facet normal 0 0 1
    outer loop
      vertex 32.6667 16.3333 0
      vertex 17.3333 16.3333 0
      vertex 32.6667 1 0
    endloop
  endfacet
  facet normal 0 0 1
    outer loop
      vertex 17.3333 32.6667 0
      vertex 17.3333 17.3333 0
      vertex 32.6667 17.3333 0
    endloop
  endfacet
  facet normal 0 0 1
    outer loop
      vertex 32.6667 32.6667 0
      vertex 17.3333 32.6667 0
      vertex 32.6667 17.3333 0
    endloop
  endfacet
  facet normal 0 0 1
    outer loop
      vertex 17.3333 49 0
      vertex 17.3333 33.6667 0
      vertex 32.6667 33.6667 0
    endloop
  endfacet
  facet normal 0 0 1
    outer loop
      vertex 32.6667 49 0
      vertex 17.3333 49 0
      vertex 32.6667 33.6667 0
    endloop
  endfacet
  facet normal 0 0 1
    outer loop
      vertex 33.6667 16.3333 0
      vertex 33.6667 1 0
      vertex 49 1 0
    endloop
  endfacet
  facet normal 0 0 1
    outer loop
      vertex 49 16.3333 0
      vertex 33.6667 16.3333 0
      vertex 49 1 0
    endloop
  endfacet
  facet normal 0 0 1
    outer loop
      vertex 33.6667 32.6667 0
      vertex 33.6667 17.3333 0
      vertex 49 17.3333 0
    endloop
  endfacet
  facet normal 0 0 1
    outer loop
      vertex 49 32.6667 0
      vertex 33.6667 32.6667 0
      vertex 49 17.3333 0
    endloop
  endfacet
  facet normal 0 0 1
    outer loop
      vertex 33.6667 49 0
      vertex 33.6667 33.6667 0
      vertex 49 33.6667 0
    endloop
  endfacet
  facet normal 0 0 1
    outer loop
      vertex 49 49 0
      vertex 33.6667 49 0
      vertex 49 33.6667 0
    endloop
  endfacet
  facet normal -1 0 0
    outer loop
      vertex 57.4 -2 -2
      vertex 57.4 -2 0
      vertex 57.4 52 -2
    endloop
  endfacet
  facet normal -1 0 0
    outer loop
      vertex 57.4 52 -2
      vertex 57.4 -2 0
      vertex 57.4 52 0
    endloop
  endfacet
  facet normal 0 -1 0
    outer loop
      vertex 57.4 -2 0
      vertex 57.4 -2 -2
      vertex 111.4 -2 -2
    endloop
  endfacet
  facet normal 0 -1 0
    outer loop
      vertex 111.4 -2 0
      vertex 57.4 -2 0
      vertex 111.4 -2 -2
    endloop
  endfacet
  facet normal 0 0 -1
    outer loop
      vertex 57.4 -2 -2
      vertex 57.4 52 -2
      vertex 111.4 -2 -2
    endloop
  endfacet
  facet normal 0 0 -1
    outer loop
      vertex 111.4 -2 -2
      vertex 57.4 52 -2
      vertex 111.4 52 -2
    endloop
  endfacet
  facet normal 0 1 0
    outer loop
      vertex 57.4 52 -2
      vertex 57.4 52 0
      vertex 111.4 52 -2
    endloop
  endfacet
  facet normal 0 1 0
    outer loop
      vertex 111.4 52 -2
      vertex 57.4 52 0
      vertex 111.4 52 0
    endloop
  endfacet
  facet normal 0 0 1
    outer loop
      vertex 61 1.6 0
      vertex 57.4 -2 0
      vertex 111.4 -2 0
    endloop
  endfacet
  facet normal 0 0 1
    outer loop
      vertex 75.5333 1.6 0
      vertex 61 1.6 0
      vertex 111.4 -2 0
    endloop
  endfacet
  facet normal 0 0 1
    outer loop
      vertex 57.4 52 0
      vertex 57.4 -2 0
      vertex 61 1.6 0
    endloop
  endfacet
  facet normal 0 0 1
    outer loop
      vertex 91.6667 17.7333 0
      vertex 77.1333 17.7333 0
      vertex 91.6667 16.1333 0
    endloop
  endfacet
  facet normal 0 0 1
    outer loop
      vertex 57.4 52 0
      vertex 61 1.6 0
      vertex 61 16.1333 0
    endloop
  endfacet
  facet normal 0 0 1
    outer loop
      vertex 61 17.7333 0
      vertex 61 16.1333 0
      vertex 75.5333 16.1333 0
    endloop
  endfacet
  facet normal 0 0 1
    outer loop
      vertex 77.1333 1.6 0
      vertex 75.5333 1.6 0
      vertex 111.4 -2 0
    endloop
  endfacet
  facet normal 0 0 1
    outer loop
      vertex 57.4 52 0
      vertex 61 16.1333 0
      vertex 61 17.7333 0
    endloop
  endfacet
  facet normal 0 0 1
    outer loop
      vertex 57.4 52 0
      vertex 61 17.7333 0
      vertex 61 32.2667 0
    endloop
  endfacet
  facet normal 0 0 1
    outer loop
      vertex 91.6667 33.8667 0
      vertex 77.1333 33.8667 0
      vertex 91.6667 32.2667 0
    endloop
  endfacet
  facet normal 0 0 1
    outer loop
      vertex 77.1333 1.6 0
      vertex 77.1333 16.1333 0
      vertex 75.5333 16.1333 0
    endloop
  endfacet
  facet normal 0 0 1
    outer loop
      vertex 61 33.8667 0
      vertex 61 48.4 0
      vertex 57.4 52 0
    endloop
  endfacet
  facet normal 0 0 1
    outer loop
      vertex 61 32.2667 0
      vertex 75.5333 32.2667 0
      vertex 61 33.8667 0
    endloop
  endfacet
  facet normal 0 0 1
    outer loop
      vertex 57.4 52 0
      vertex 61 32.2667 0
      vertex 61 33.8667 0
    endloop
  endfacet
  facet normal 0 0 1
    outer loop
      vertex 75.5333 48.4 0
      vertex 75.5333 33.8667 0
      vertex 77.1333 33.8667 0
    endloop
  endfacet
  facet normal 0 0 1
    outer loop
      vertex 111.4 52 0
      vertex 57.4 52 0
      vertex 75.5333 48.4 0
    endloop
  endfacet
  facet normal 0 0 1
    outer loop
      vertex 93.2667 1.6 0
      vertex 93.2667 16.1333 0
      vertex 91.6667 16.1333 0
    endloop
  endfacet
  facet normal 0 0 1
    outer loop
      vertex 61 48.4 0
      vertex 75.5333 48.4 0
      vertex 57.4 52 0
    endloop
  endfacet
  facet normal 0 0 1
    outer loop
      vertex 91.6667 1.6 0
      vertex 77.1333 1.6 0
      vertex 111.4 -2 0
    endloop
  endfacet
  facet normal 0 0 1
    outer loop
      vertex 75.5333 17.7333 0
      vertex 75.5333 16.1333 0
      vertex 77.1333 16.1333 0
    endloop
  endfacet
  facet normal 0 0 1
    outer loop
      vertex 77.1333 17.7333 0
      vertex 77.1333 32.2667 0
      vertex 75.5333 32.2667 0
    endloop
  endfacet
  facet normal 0 0 1
    outer loop
      vertex 77.1333 17.7333 0
      vertex 75.5333 17.7333 0
      vertex 91.6667 16.1333 0
    endloop
  endfacet
  facet normal 0 0 1
    outer loop
      vertex 93.2667 1.6 0
      vertex 91.6667 1.6 0
      vertex 111.4 -2 0
    endloop
  endfacet
  facet normal 0 0 1
    outer loop
      vertex 75.5333 33.8667 0
      vertex 61 33.8667 0
      vertex 75.5333 32.2667 0
    endloop
  endfacet
  facet normal 0 0 1
    outer loop
      vertex 75.5333 32.2667 0
      vertex 75.5333 17.7333 0
      vertex 77.1333 17.7333 0
    endloop
  endfacet
  facet normal 0 0 1
    outer loop
      vertex 75.5333 33.8667 0
      vertex 75.5333 32.2667 0
      vertex 77.1333 32.2667 0
    endloop
  endfacet
  facet normal 0 0 1
    outer loop
      vertex 107.8 1.6 0
      vertex 93.2667 1.6 0
      vertex 111.4 -2 0
    endloop
  endfacet
  facet normal 0 0 1
    outer loop
      vertex 77.1333 33.8667 0
      vertex 77.1333 48.4 0
      vertex 75.5333 48.4 0
    endloop
  endfacet
  facet normal 0 0 1
    outer loop
      vertex 107.8 16.1333 0
      vertex 107.8 1.6 0
      vertex 111.4 -2 0
    endloop
  endfacet
  facet normal 0 0 1
    outer loop
      vertex 93.2667 16.1333 0
      vertex 107.8 16.1333 0
      vertex 93.2667 17.7333 0
    endloop
  endfacet
  facet normal 0 0 1
    outer loop
      vertex 107.8 48.4 0
      vertex 107.8 33.8667 0
      vertex 111.4 52 0
    endloop
  endfacet
  facet normal 0 0 1
    outer loop
      vertex 111.4 52 0
      vertex 75.5333 48.4 0
      vertex 77.1333 48.4 0
    endloop
  endfacet
  facet normal 0 0 1
    outer loop
      vertex 111.4 52 0
      vertex 77.1333 48.4 0
      vertex 91.6667 48.4 0
    endloop
  endfacet
  facet normal 0 0 1
    outer loop
      vertex 93.2667 33.8667 0
      vertex 91.6667 33.8667 0
      vertex 91.6667 32.2667 0
    endloop
  endfacet
  facet normal 0 0 1
    outer loop
      vertex 93.2667 48.4 0
      vertex 91.6667 48.4 0
      vertex 91.6667 33.8667 0
    endloop
  endfacet
  facet normal 0 0 1
    outer loop
      vertex 75.5333 17.7333 0
      vertex 61 17.7333 0
      vertex 75.5333 16.1333 0
    endloop
  endfacet
  facet normal 0 0 1
    outer loop
      vertex 93.2667 16.1333 0
      vertex 93.2667 17.7333 0
      vertex 91.6667 17.7333 0
    endloop
  endfacet
  facet normal 0 0 1
    outer loop
      vertex 111.4 52 0
      vertex 107.8 16.1333 0
      vertex 111.4 -2 0
    endloop
  endfacet
  facet normal 0 0 1
    outer loop
      vertex 93.2667 17.7333 0
      vertex 93.2667 32.2667 0
      vertex 91.6667 32.2667 0
    endloop
  endfacet
  facet normal 0 0 1
    outer loop
      vertex 77.1333 32.2667 0
      vertex 77.1333 33.8667 0
      vertex 75.5333 33.8667 0
    endloop
  endfacet
  facet normal 0 0 1
    outer loop
      vertex 107.8 17.7333 0
      vertex 93.2667 17.7333 0
      vertex 107.8 16.1333 0
    endloop
  endfacet
  facet normal 0 0 1
    outer loop
      vertex 91.6667 32.2667 0
      vertex 91.6667 17.7333 0
      vertex 93.2667 17.7333 0
    endloop
  endfacet
  facet normal 0 0 1
    outer loop
      vertex 107.8 33.8667 0
      vertex 93.2667 33.8667 0
      vertex 93.2667 32.2667 0
    endloop
  endfacet
  facet normal 0 0 1
    outer loop
      vertex 93.2667 33.8667 0
      vertex 91.6667 32.2667 0
      vertex 93.2667 32.2667 0
    endloop
  endfacet
  facet normal 0 0 1
    outer loop
      vertex 107.8 33.8667 0
      vertex 93.2667 32.2667 0
      vertex 107.8 32.2667 0
    endloop
  endfacet
  facet normal 0 0 1
    outer loop
      vertex 111.4 52 0
      vertex 107.8 17.7333 0
      vertex 107.8 16.1333 0
    endloop
  endfacet
  facet normal 0 0 1
    outer loop
      vertex 111.4 52 0
      vertex 107.8 32.2667 0
      vertex 107.8 17.7333 0
    endloop
  endfacet
  facet normal 0 0 1
    outer loop
      vertex 93.2667 48.4 0
      vertex 107.8 48.4 0
      vertex 111.4 52 0
    endloop
  endfacet
  facet normal 0 0 1
    outer loop
      vertex 111.4 52 0
      vertex 91.6667 48.4 0
      vertex 93.2667 48.4 0
    endloop
  endfacet
  facet normal 0 0 1
    outer loop
      vertex 111.4 52 0
      vertex 107.8 33.8667 0
      vertex 107.8 32.2667 0
    endloop
  endfacet
  facet normal 0 0 1
    outer loop
      vertex 93.2667 33.8667 0
      vertex 93.2667 48.4 0
      vertex 91.6667 33.8667 0
    endloop
  endfacet
  facet normal 0 0 1
    outer loop
      vertex 77.1333 16.1333 0
      vertex 91.6667 16.1333 0
      vertex 75.5333 17.7333 0
    endloop
  endfacet
  facet normal 0 0 1
    outer loop
      vertex 91.6667 16.1333 0
      vertex 91.6667 1.6 0
      vertex 93.2667 1.6 0
    endloop
  endfacet
  facet normal 0 0 1
    outer loop
      vertex 91.6667 17.7333 0
      vertex 91.6667 16.1333 0
      vertex 93.2667 16.1333 0
    endloop
  endfacet
  facet normal 0 0 1
    outer loop
      vertex 75.5333 16.1333 0
      vertex 75.5333 1.6 0
      vertex 77.1333 1.6 0
    endloop
  endfacet
  facet normal 0 0 1
    outer loop
      vertex 77.1333 32.2667 0
      vertex 91.6667 32.2667 0
      vertex 77.1333 33.8667 0
    endloop
  endfacet
  facet normal 1 0 0
    outer loop
      vertex 111.4 -2 0
      vertex 111.4 -2 -2
      vertex 111.4 52 -2
    endloop
  endfacet
  facet normal 1 0 0
    outer loop
      vertex 111.4 52 0
      vertex 111.4 -2 0
      vertex 111.4 52 -2
    endloop
  endfacet
  facet normal -1 0 0
    outer loop
      vertex 61 16.1333 2
      vertex 61 16.1333 0
      vertex 61 1.6 2
    endloop
  endfacet
  facet normal -1 0 0
    outer loop
      vertex 61 1.6 2
      vertex 61 16.1333 0
      vertex 61 1.6 0
    endloop
  endfacet
  facet normal 0 -1 0
    outer loop
      vertex 75.5333 1.6 0
      vertex 75.5333 1.6 2
      vertex 61 1.6 2
    endloop
  endfacet
  facet normal 0 -1 0
    outer loop
      vertex 61 1.6 0
      vertex 75.5333 1.6 0
      vertex 61 1.6 2
    endloop
  endfacet
  facet normal 1 0 0
    outer loop
      vertex 75.5333 16.1333 0
      vertex 75.5333 16.1333 2
      vertex 75.5333 1.6 2
    endloop
  endfacet
  facet normal 1 0 0
    outer loop
      vertex 75.5333 1.6 0
      vertex 75.5333 16.1333 0
      vertex 75.5333 1.6 2
    endloop
  endfacet
  facet normal 0 1 0
    outer loop
      vertex 75.5333 16.1333 2
      vertex 75.5333 16.1333 0
      vertex 61 16.1333 2
    endloop
  endfacet
  facet normal 0 1 0
    outer loop
      vertex 61 16.1333 2
      vertex 75.5333 16.1333 0
      vertex 61 16.1333 0
    endloop
  endfacet
  facet normal -1 0 0
    outer loop
      vertex 61 32.2667 2
      vertex 61 32.2667 0
      vertex 61 17.7333 2
    endloop
  endfacet
  facet normal -1 0 0
    outer loop
      vertex 61 17.7333 2
      vertex 61 32.2667 0
      vertex 61 17.7333 0
    endloop
  endfacet
  facet normal 0 -1 0
    outer loop
      vertex 75.5333 17.7333 0
      vertex 75.5333 17.7333 2
      vertex 61 17.7333 2
    endloop
  endfacet
  facet normal 0 -1 0
    outer loop
      vertex 61 17.7333 0
      vertex 75.5333 17.7333 0
      vertex 61 17.7333 2
    endloop
  endfacet
  facet normal 1 0 0
    outer loop
      vertex 75.5333 32.2667 0
      vertex 75.5333 32.2667 2
      vertex 75.5333 17.7333 2
    endloop
  endfacet
  facet normal 1 0 0
    outer loop
      vertex 75.5333 17.7333 0
      vertex 75.5333 32.2667 0
      vertex 75.5333 17.7333 2
    endloop
  endfacet
  facet normal 0 1 0
    outer loop
      vertex 75.5333 32.2667 2
      vertex 75.5333 32.2667 0
      vertex 61 32.2667 2
    endloop
  endfacet
  facet normal 0 1 0
    outer loop
      vertex 61 32.2667 2
      vertex 75.5333 32.2667 0
      vertex 61 32.2667 0
    endloop
  endfacet
  facet normal -1 0 0
    outer loop
      vertex 61 48.4 2
      vertex 61 48.4 0
      vertex 61 33.8667 2
    endloop
  endfacet
  facet normal -1 0 0
    outer loop
      vertex 61 33.8667 2
      vertex 61 48.4 0
      vertex 61 33.8667 0
    endloop
  endfacet
  facet normal 0 -1 0
    outer loop
      vertex 75.5333 33.8667 0
      vertex 75.5333 33.8667 2
      vertex 61 33.8667 2
    endloop
  endfacet
  facet normal 0 -1 0
    outer loop
      vertex 61 33.8667 0
      vertex 75.5333 33.8667 0
      vertex 61 33.8667 2
    endloop
  endfacet
  facet normal 1 0 0
    outer loop
      vertex 75.5333 48.4 0
      vertex 75.5333 48.4 2
      vertex 75.5333 33.8667 2
    endloop
  endfacet
  facet normal 1 0 0
    outer loop
      vertex 75.5333 33.8667 0
      vertex 75.5333 48.4 0
      vertex 75.5333 33.8667 2
    endloop
  endfacet
  facet normal 0 1 0
    outer loop
      vertex 75.5333 48.4 2
      vertex 75.5333 48.4 0
      vertex 61 48.4 2
    endloop
  endfacet
  facet normal 0 1 0
    outer loop
      vertex 61 48.4 2
      vertex 75.5333 48.4 0
      vertex 61 48.4 0
    endloop
  endfacet
  facet normal -1 0 0
    outer loop
      vertex 77.1333 16.1333 2
      vertex 77.1333 16.1333 0
      vertex 77.1333 1.6 2
    endloop
  endfacet
  facet normal -1 0 0
    outer loop
      vertex 77.1333 1.6 2
      vertex 77.1333 16.1333 0
      vertex 77.1333 1.6 0
    endloop
  endfacet
  facet normal 0 -1 0
    outer loop
      vertex 91.6667 1.6 0
      vertex 91.6667 1.6 2
      vertex 77.1333 1.6 2
    endloop
  endfacet
  facet normal 0 -1 0
    outer loop
      vertex 77.1333 1.6 0
      vertex 91.6667 1.6 0
      vertex 77.1333 1.6 2
    endloop
  endfacet
  facet normal 1 0 0
    outer loop
      vertex 91.6667 16.1333 0
      vertex 91.6667 16.1333 2
      vertex 91.6667 1.6 2
    endloop
  endfacet
  facet normal 1 0 0
    outer loop
      vertex 91.6667 1.6 0
      vertex 91.6667 16.1333 0
      vertex 91.6667 1.6 2
    endloop
  endfacet
  facet normal 0 1 0
    outer loop
      vertex 91.6667 16.1333 2
      vertex 91.6667 16.1333 0
      vertex 77.1333 16.1333 2
    endloop
  endfacet
  facet normal 0 1 0
    outer loop
      vertex 77.1333 16.1333 2
      vertex 91.6667 16.1333 0
      vertex 77.1333 16.1333 0
    endloop
  endfacet
  facet normal -1 0 0
    outer loop
      vertex 77.1333 32.2667 2
      vertex 77.1333 32.2667 0
      vertex 77.1333 17.7333 2
    endloop
  endfacet
  facet normal -1 0 0
    outer loop
      vertex 77.1333 17.7333 2
      vertex 77.1333 32.2667 0
      vertex 77.1333 17.7333 0
    endloop
  endfacet
  facet normal 0 -1 0
    outer loop
      vertex 91.6667 17.7333 0
      vertex 91.6667 17.7333 2
      vertex 77.1333 17.7333 2
    endloop
  endfacet
  facet normal 0 -1 0
    outer loop
      vertex 77.1333 17.7333 0
      vertex 91.6667 17.7333 0
      vertex 77.1333 17.7333 2
    endloop
  endfacet
  facet normal 1 0 0
    outer loop
      vertex 91.6667 32.2667 0
      vertex 91.6667 32.2667 2
      vertex 91.6667 17.7333 2
    endloop
  endfacet
  facet normal 1 0 0
    outer loop
      vertex 91.6667 17.7333 0
      vertex 91.6667 32.2667 0
      vertex 91.6667 17.7333 2
    endloop
  endfacet
  facet normal 0 1 0
    outer loop
      vertex 91.6667 32.2667 2
      vertex 91.6667 32.2667 0
      vertex 77.1333 32.2667 2
    endloop
  endfacet
  facet normal 0 1 0
    outer loop
      vertex 77.1333 32.2667 2
      vertex 91.6667 32.2667 0
      vertex 77.1333 32.2667 0
    endloop
  endfacet
  facet normal -1 0 0
    outer loop
      vertex 77.1333 48.4 2
      vertex 77.1333 48.4 0
      vertex 77.1333 33.8667 2
    endloop
  endfacet
  facet normal -1 0 0
    outer loop
      vertex 77.1333 33.8667 2
      vertex 77.1333 48.4 0
      vertex 77.1333 33.8667 0
    endloop
  endfacet
  facet normal 0 -1 0
    outer loop
      vertex 91.6667 33.8667 0
      vertex 91.6667 33.8667 2
      vertex 77.1333 33.8667 2
    endloop
  endfacet
  facet normal 0 -1 0
    outer loop
      vertex 77.1333 33.8667 0
      vertex 91.6667 33.8667 0
      vertex 77.1333 33.8667 2
    endloop
  endfacet
  facet normal 1 0 0
    outer loop
      vertex 91.6667 48.4 0
      vertex 91.6667 48.4 2
      vertex 91.6667 33.8667 2
    endloop
  endfacet
  facet normal 1 0 0
    outer loop
      vertex 91.6667 33.8667 0
      vertex 91.6667 48.4 0
      vertex 91.6667 33.8667 2
    endloop
  endfacet
  facet normal 0 1 0
    outer loop
      vertex 91.6667 48.4 2
      vertex 91.6667 48.4 0
      vertex 77.1333 48.4 2
    endloop
  endfacet
  facet normal 0 1 0
    outer loop
      vertex 77.1333 48.4 2
      vertex 91.6667 48.4 0
      vertex 77.1333 48.4 0
    endloop
  endfacet
  facet normal -1 0 0
    outer loop
      vertex 93.2667 16.1333 2
      vertex 93.2667 16.1333 0
      vertex 93.2667 1.6 2
    endloop
  endfacet
  facet normal -1 0 0
    outer loop
      vertex 93.2667 1.6 2
      vertex 93.2667 16.1333 0
      vertex 93.2667 1.6 0
    endloop
  endfacet
  facet normal 0 -1 0
    outer loop
      vertex 107.8 1.6 0
      vertex 107.8 1.6 2
      vertex 93.2667 1.6 2
    endloop
  endfacet
  facet normal 0 -1 0
    outer loop
      vertex 93.2667 1.6 0
      vertex 107.8 1.6 0
      vertex 93.2667 1.6 2
    endloop
  endfacet
  facet normal 1 0 0
    outer loop
      vertex 107.8 16.1333 0
      vertex 107.8 16.1333 2
      vertex 107.8 1.6 2
    endloop
  endfacet
  facet normal 1 0 0
    outer loop
      vertex 107.8 1.6 0
      vertex 107.8 16.1333 0
      vertex 107.8 1.6 2
    endloop
  endfacet
  facet normal 0 1 0
    outer loop
      vertex 107.8 16.1333 2
      vertex 107.8 16.1333 0
      vertex 93.2667 16.1333 2
    endloop
  endfacet
  facet normal 0 1 0
    outer loop
      vertex 93.2667 16.1333 2
      vertex 107.8 16.1333 0
      vertex 93.2667 16.1333 0
    endloop
  endfacet
  facet normal -1 0 0
    outer loop
      vertex 93.2667 32.2667 2
      vertex 93.2667 32.2667 0
      vertex 93.2667 17.7333 2
    endloop
  endfacet
  facet normal -1 0 0
    outer loop
      vertex 93.2667 17.7333 2
      vertex 93.2667 32.2667 0
      vertex 93.2667 17.7333 0
    endloop
  endfacet
  facet normal 0 -1 0
    outer loop
      vertex 107.8 17.7333 0
      vertex 107.8 17.7333 2
      vertex 93.2667 17.7333 2
    endloop
  endfacet
  facet normal 0 -1 0
    outer loop
      vertex 93.2667 17.7333 0
      vertex 107.8 17.7333 0
      vertex 93.2667 17.7333 2
    endloop
  endfacet
  facet normal 1 0 0
    outer loop
      vertex 107.8 32.2667 0
      vertex 107.8 32.2667 2
      vertex 107.8 17.7333 2
    endloop
  endfacet
  facet normal 1 0 0
    outer loop
      vertex 107.8 17.7333 0
      vertex 107.8 32.2667 0
      vertex 107.8 17.7333 2
    endloop
  endfacet
  facet normal 0 1 0
    outer loop
      vertex 107.8 32.2667 2
      vertex 107.8 32.2667 0
      vertex 93.2667 32.2667 2
    endloop
  endfacet
  facet normal 0 1 0
    outer loop
      vertex 93.2667 32.2667 2
      vertex 107.8 32.2667 0
      vertex 93.2667 32.2667 0
    endloop
  endfacet
  facet normal -1 0 0
    outer loop
      vertex 93.2667 48.4 2
      vertex 93.2667 48.4 0
      vertex 93.2667 33.8667 2
    endloop
  endfacet
  facet normal -1 0 0
    outer loop
      vertex 93.2667 33.8667 2
      vertex 93.2667 48.4 0
      vertex 93.2667 33.8667 0
    endloop
  endfacet
  facet normal 0 -1 0
    outer loop
      vertex 107.8 33.8667 0
      vertex 107.8 33.8667 2
      vertex 93.2667 33.8667 2
    endloop
  endfacet
  facet normal 0 -1 0
    outer loop
      vertex 93.2667 33.8667 0
      vertex 107.8 33.8667 0
      vertex 93.2667 33.8667 2
    endloop
  endfacet
  facet normal 1 0 0
    outer loop
      vertex 107.8 48.4 0
      vertex 107.8 48.4 2
      vertex 107.8 33.8667 2
    endloop
  endfacet
  facet normal 1 0 0
    outer loop
      vertex 107.8 33.8667 0
      vertex 107.8 48.4 0
      vertex 107.8 33.8667 2
    endloop
  endfacet
  facet normal 0 1 0
    outer loop
      vertex 107.8 48.4 2
      vertex 107.8 48.4 0
      vertex 93.2667 48.4 2
    endloop
  endfacet
  facet normal 0 1 0
    outer loop
      vertex 93.2667 48.4 2
      vertex 107.8 48.4 0
      vertex 93.2667 48.4 0
    endloop
  endfacet
  facet normal 0 0 1
    outer loop
      vertex 61 16.1333 2
      vertex 61 1.6 2
      vertex 75.5333 1.6 2
    endloop
  endfacet
  facet normal 0 0 1
    outer loop
      vertex 75.5333 16.1333 2
      vertex 61 16.1333 2
      vertex 75.5333 1.6 2
    endloop
  endfacet
  facet normal 0 0 1
    outer loop
      vertex 61 32.2667 2
      vertex 61 17.7333 2
      vertex 75.5333 17.7333 2
    endloop
  endfacet
  facet normal 0 0 1
    outer loop
      vertex 75.5333 32.2667 2
      vertex 61 32.2667 2
      vertex 75.5333 17.7333 2
    endloop
  endfacet
  facet normal 0 0 1
    outer loop
      vertex 61 48.4 2
      vertex 61 33.8667 2
      vertex 75.5333 33.8667 2
    endloop
  endfacet
  facet normal 0 0 1
    outer loop
      vertex 75.5333 48.4 2
      vertex 61 48.4 2
      vertex 75.5333 33.8667 2
    endloop
  endfacet
  facet normal 0 0 1
    outer loop
      vertex 77.1333 16.1333 2
      vertex 77.1333 1.6 2
      vertex 91.6667 1.6 2
    endloop
  endfacet
  facet normal 0 0 1
    outer loop
      vertex 91.6667 16.1333 2
      vertex 77.1333 16.1333 2
      vertex 91.6667 1.6 2
    endloop
  endfacet
  facet normal 0 0 1
    outer loop
      vertex 77.1333 32.2667 2
      vertex 77.1333 17.7333 2
      vertex 91.6667 17.7333 2
    endloop
  endfacet
  facet normal 0 0 1
    outer loop
      vertex 91.6667 32.2667 2
      vertex 77.1333 32.2667 2
      vertex 91.6667 17.7333 2
    endloop
  endfacet
  facet normal 0 0 1
    outer loop
      vertex 77.1333 48.4 2
      vertex 77.1333 33.8667 2
      vertex 91.6667 33.8667 2
    endloop
  endfacet
  facet normal 0 0 1
    outer loop
      vertex 91.6667 48.4 2
      vertex 77.1333 48.4 2
      vertex 91.6667 33.8667 2
    endloop
  endfacet
  facet normal 0 0 1
    outer loop
      vertex 93.2667 16.1333 2
      vertex 93.2667 1.6 2
      vertex 107.8 1.6 2
    endloop
  endfacet
  facet normal 0 0 1
    outer loop
      vertex 107.8 16.1333 2
      vertex 93.2667 16.1333 2
      vertex 107.8 1.6 2
    endloop
  endfacet
  facet normal 0 0 1
    outer loop
      vertex 93.2667 32.2667 2
      vertex 93.2667 17.7333 2
      vertex 107.8 17.7333 2
    endloop
  endfacet
  facet normal 0 0 1
    outer loop
      vertex 107.8 32.2667 2
      vertex 93.2667 32.2667 2
      vertex 107.8 17.7333 2
    endloop
  endfacet
  facet normal 0 0 1
    outer loop
      vertex 93.2667 48.4 2
      vertex 93.2667 33.8667 2
      vertex 107.8 33.8667 2
    endloop
  endfacet
  facet normal 0 0 1
    outer loop
      vertex 107.8 48.4 2
      vertex 93.2667 48.4 2
      vertex 107.8 33.8667 2
    endloop
  endfacet
endsolid OpenSCAD_Model
