solid OpenSCAD_Model
  facet normal -1 0 0
    outer loop
      vertex -2 -2 -2
      vertex -2 -2 0
      vertex -2 52 -2
    endloop
  endfacet
  facet normal -1 0 0
    outer loop
      vertex -2 52 -2
      vertex -2 -2 0
      vertex -2 52 0
    endloop
  endfacet
  facet normal 0 -1 0
    outer loop
      vertex -2 -2 0
      vertex -2 -2 -2
      vertex 52 -2 -2
    endloop
  endfacet
  facet normal 0 -1 0
    outer loop
      vertex 52 -2 0
      vertex -2 -2 0
      vertex 52 -2 -2
    endloop
  endfacet
  facet normal 0 0 -1
    outer loop
      vertex -2 -2 -2
      vertex -2 52 -2
      vertex 52 -2 -2
    endloop
  endfacet
  facet normal 0 0 -1
    outer loop
      vertex 52 -2 -2
      vertex -2 52 -2
      vertex 52 52 -2
    endloop
  endfacet
  facet normal 0 1 0
    outer loop
      vertex -2 52 -2
      vertex -2 52 0
      vertex 52 52 -2
    endloop
  endfacet
  facet normal 0 1 0
    outer loop
      vertex 52 52 -2
      vertex -2 52 0
      vertex 52 52 0
    endloop
  endfacet
  facet normal 0 0 1
    outer loop
      vertex 0 0 0
      vertex -2 -2 0
      vertex 52 -2 0
    endloop
  endfacet
  facet normal 0 0 1
    outer loop
      vertex 0 50 0
      vertex -2 52 0
      vertex 0 0 0
    endloop
  endfacet
  facet normal 0 0 1
    outer loop
      vertex 50 0 0
      vertex 0 0 0
      vertex 52 -2 0
    endloop
  endfacet
  facet normal 0 0 1
    outer loop
      vertex -2 52 0
      vertex -2 -2 0
      vertex 0 0 0
    endloop
  endfacet
  facet normal 0 0 1
    outer loop
      vertex 52 52 0
      vertex -2 52 0
      vertex 0 50 0
    endloop
  endfacet
  facet normal 0 0 1
    outer loop
      vertex 52 52 0
      vertex 50 50 0
      vertex 52 -2 0
    endloop
  endfacet
  facet normal 0 0 1
    outer loop
      vertex 52 52 0
      vertex 0 50 0
      vertex 50 50 0
    endloop
  endfacet
  facet normal 0 0 1
    outer loop
      vertex 50 50 0
      vertex 50 0 0
      vertex 52 -2 0
    endloop
  endfacet
  facet normal 1 0 0
    outer loop
      vertex 52 -2 0
      vertex 52 -2 -2
      vertex 52 52 -2
    endloop
  endfacet
  facet normal 1 0 0
    outer loop
      vertex 52 52 0
      vertex 52 -2 0
      vertex 52 52 -2
    endloop
  endfacet
  facet normal -1 0 0
    outer loop
      vertex 0 0 0
      vertex 0 0 4
      vertex 0 50 0
    endloop
  endfacet
  facet normal -1 0 0
    outer loop
      vertex 0 50 0
      vertex 0 0 4
      vertex 0 50 4
    endloop
  endfacet
  facet normal 0 -1 0
    outer loop
      vertex 0 0 4
      vertex 0 0 0
      vertex 50 0 0
    endloop
  endfacet
  facet normal 0 -1 0
    outer loop
      vertex 50 0 4
      vertex 0 0 4
      vertex 50 0 0
    endloop
  endfacet
  facet normal 1 0 0
    outer loop
      vertex 50 0 4
      vertex 50 0 0
      vertex 50 50 0
    endloop
  endfacet
  facet normal 1 0 0
    outer loop
      vertex 50 50 4
      vertex 50 0 4
      vertex 50 50 0
    endloop
  endfacet
  facet normal 0 1 0
    outer loop
      vertex 0 50 0
      vertex 0 50 4
      vertex 50 50 0
    endloop
  endfacet
  facet normal 0 1 0
    outer loop
      vertex 50 50 0
      vertex 0 50 4
      vertex 50 50 4
    endloop
  endfacet
  facet normal 0 0 1
    outer loop
      vertex 1.5 1.5 4
      vertex 0 0 4
      vertex 50 0 4
    endloop
  endfacet
  facet normal 0 0 1
    outer loop
      vertex 1.5 48.5 4
      vertex 0 50 4
      vertex 1.5 1.5 4
    endloop
  endfacet
  facet normal 0 0 1
    outer loop
      vertex 12.125 1.5 4
      vertex 1.5 1.5 4
      vertex 50 0 4
    endloop
  endfacet
  facet normal 0 0 1
    outer loop
      vertex 0 50 4
      vertex 0 0 4
      vertex 1.5 1.5 4
    endloop
  endfacet
  facet normal 0 0 1
    outer loop
      vertex 50 50 4
      vertex 0 50 4
      vertex 1.5 48.5 4
    endloop
  endfacet
  facet normal 0 0 1
    outer loop
      vertex 50 50 4
      vertex 1.5 48.5 4
      vertex 12.125 48.5 4
    endloop
  endfacet
  facet normal 0 0 1
    outer loop
      vertex 13.625 1.5 4
      vertex 12.125 1.5 4
      vertex 50 0 4
    endloop
  endfacet
  facet normal 0 0 1
    outer loop
      vertex 24.25 1.5 4
      vertex 13.625 1.5 4
      vertex 50 0 4
    endloop
  endfacet
  facet normal 0 0 1
    outer loop
      vertex 25.75 1.5 4
      vertex 25.75 48.5 4
      vertex 24.25 48.5 4
    endloop
  endfacet
  facet normal 0 0 1
    outer loop
      vertex 50 50 4
      vertex 12.125 48.5 4
      vertex 13.625 48.5 4
    endloop
  endfacet
  facet normal 0 0 1
    outer loop
      vertex 50 50 4
      vertex 13.625 48.5 4
      vertex 24.25 48.5 4
    endloop
  endfacet
  facet normal 0 0 1
    outer loop
      vertex 25.75 1.5 4
      vertex 24.25 1.5 4
      vertex 50 0 4
    endloop
  endfacet
  facet normal 0 0 1
    outer loop
      vertex 36.375 1.5 4
      vertex 25.75 1.5 4
      vertex 50 0 4
    endloop
  endfacet
  facet normal 0 0 1
    outer loop
      vertex 50 50 4
      vertex 24.25 48.5 4
      vertex 25.75 48.5 4
    endloop
  endfacet
  facet normal 0 0 1
    outer loop
      vertex 50 50 4
      vertex 25.75 48.5 4
      vertex 36.375 48.5 4
    endloop
  endfacet
  facet normal 0 0 1
    outer loop
      vertex 37.875 1.5 4
      vertex 36.375 1.5 4
      vertex 50 0 4
    endloop
  endfacet
  facet normal 0 0 1
    outer loop
      vertex 48.5 1.5 4
      vertex 37.875 1.5 4
      vertex 50 0 4
    endloop
  endfacet
  facet normal 0 0 1
    outer loop
      vertex 37.875 1.5 4
      vertex 37.875 48.5 4
      vertex 36.375 48.5 4
    endloop
  endfacet
  facet normal 0 0 1
    outer loop
      vertex 50 50 4
      vertex 36.375 48.5 4
      vertex 37.875 48.5 4
    endloop
  endfacet
  facet normal 0 0 1
    outer loop
      vertex 50 50 4
      vertex 48.5 48.5 4
      vertex 50 0 4
    endloop
  endfacet
  facet normal 0 0 1
    outer loop
      vertex 50 50 4
      vertex 37.875 48.5 4
      vertex 48.5 48.5 4
    endloop
  endfacet
  facet normal 0 0 1
    outer loop
      vertex 48.5 48.5 4
      vertex 48.5 1.5 4
      vertex 50 0 4
    endloop
  endfacet
  facet normal 0 0 1
    outer loop
      vertex 13.625 1.5 4
      vertex 13.625 48.5 4
      vertex 12.125 48.5 4
    endloop
  endfacet
  facet normal 0 0 1
    outer loop
      vertex 36.375 48.5 4
      vertex 36.375 1.5 4
      vertex 37.875 1.5 4
    endloop
  endfacet
  facet normal 0 0 1
    outer loop
      vertex 24.25 48.5 4
      vertex 24.25 1.5 4
      vertex 25.75 1.5 4
    endloop
  endfacet
  facet normal 0 0 1
    outer loop
      vertex 12.125 48.5 4
      vertex 12.125 1.5 4
      vertex 13.625 1.5 4
    endloop
  endfacet
  facet normal 1 0 0
    outer loop
      vertex 1.5 1.5 4
      vertex 1.5 1.5 0
      vertex 1.5 48.5 0
    endloop
  endfacet
  facet normal 1 0 0
    outer loop
      vertex 1.5 48.5 4
      vertex 1.5 1.5 4
      vertex 1.5 48.5 0
    endloop
  endfacet
  facet normal 0 1 0
    outer loop
      vertex 1.5 1.5 0
      vertex 1.5 1.5 4
      vertex 12.125 1.5 0
    endloop
  endfacet
  facet normal 0 1 0
    outer loop
      vertex 12.125 1.5 0
      vertex 1.5 1.5 4
      vertex 12.125 1.5 4
    endloop
  endfacet
  facet normal -1 0 0
    outer loop
      vertex 12.125 1.5 0
      vertex 12.125 1.5 4
      vertex 12.125 48.5 0
    endloop
  endfacet
  facet normal -1 0 0
    outer loop
      vertex 12.125 48.5 0
      vertex 12.125 1.5 4
      vertex 12.125 48.5 4
    endloop
  endfacet
  facet normal 0 -1 0
    outer loop
      vertex 1.5 48.5 4
      vertex 1.5 48.5 0
      vertex 12.125 48.5 0
    endloop
  endfacet
  facet normal 0 -1 0
    outer loop
      vertex 12.125 48.5 4
      vertex 1.5 48.5 4
      vertex 12.125 48.5 0
    endloop
  endfacet
  facet normal 1 0 0
    outer loop
      vertex 13.625 1.5 4
      vertex 13.625 1.5 0
      vertex 13.625 48.5 0
    endloop
  endfacet
  facet normal 1 0 0
    outer loop
      vertex 13.625 48.5 4
      vertex 13.625 1.5 4
      vertex 13.625 48.5 0
    endloop
  endfacet
  facet normal 0 1 0
    outer loop
      vertex 13.625 1.5 0
      vertex 13.625 1.5 4
      vertex 24.25 1.5 0
    endloop
  endfacet
  facet normal 0 1 0
    outer loop
      vertex 24.25 1.5 0
      vertex 13.625 1.5 4
      vertex 24.25 1.5 4
    endloop
  endfacet
  facet normal -1 0 0
    outer loop
      vertex 24.25 1.5 0
      vertex 24.25 1.5 4
      vertex 24.25 48.5 0
    endloop
  endfacet
  facet normal -1 0 0
    outer loop
      vertex 24.25 48.5 0
      vertex 24.25 1.5 4
      vertex 24.25 48.5 4
    endloop
  endfacet
  facet normal 0 -1 0
    outer loop
      vertex 13.625 48.5 4
      vertex 13.625 48.5 0
      vertex 24.25 48.5 0
    endloop
  endfacet
  facet normal 0 -1 0
    outer loop
      vertex 24.25 48.5 4
      vertex 13.625 48.5 4
      vertex 24.25 48.5 0
    endloop
  endfacet
  facet normal 1 0 0
    outer loop
      vertex 25.75 1.5 4
      vertex 25.75 1.5 0
      vertex 25.75 48.5 0
    endloop
  endfacet
  facet normal 1 0 0
    outer loop
      vertex 25.75 48.5 4
      vertex 25.75 1.5 4
      vertex 25.75 48.5 0
    endloop
  endfacet
  facet normal 0 1 0
    outer loop
      vertex 25.75 1.5 0
      vertex 25.75 1.5 4
      vertex 36.375 1.5 0
    endloop
  endfacet
  facet normal 0 1 0
    outer loop
      vertex 36.375 1.5 0
      vertex 25.75 1.5 4
      vertex 36.375 1.5 4
    endloop
  endfacet
  facet normal -1 0 0
    outer loop
      vertex 36.375 1.5 0
      vertex 36.375 1.5 4
      vertex 36.375 48.5 0
    endloop
  endfacet
  facet normal -1 0 0
    outer loop
      vertex 36.375 48.5 0
      vertex 36.375 1.5 4
      vertex 36.375 48.5 4
    endloop
  endfacet
  facet normal 0 -1 0
    outer loop
      vertex 25.75 48.5 4
      vertex 25.75 48.5 0
      vertex 36.375 48.5 0
    endloop
  endfacet
  facet normal 0 -1 0
    outer loop
      vertex 36.375 48.5 4
      vertex 25.75 48.5 4
      vertex 36.375 48.5 0
    endloop
  endfacet
  facet normal 1 0 0
    outer loop
      vertex 37.875 1.5 4
      vertex 37.875 1.5 0
      vertex 37.875 48.5 0
    endloop
  endfacet
  facet normal 1 0 0
    outer loop
      vertex 37.875 48.5 4
      vertex 37.875 1.5 4
      vertex 37.875 48.5 0
    endloop
  endfacet
  facet normal 0 1 0
    outer loop
      vertex 37.875 1.5 0
      vertex 37.875 1.5 4
      vertex 48.5 1.5 0
    endloop
  endfacet
  facet normal 0 1 0
    outer loop
      vertex 48.5 1.5 0
      vertex 37.875 1.5 4
      vertex 48.5 1.5 4
    endloop
  endfacet
  facet normal -1 0 0
    outer loop
      vertex 48.5 1.5 0
      vertex 48.5 1.5 4
      vertex 48.5 48.5 0
    endloop
  endfacet
  facet normal -1 0 0
    outer loop
      vertex 48.5 48.5 0
      vertex 48.5 1.5 4
      vertex 48.5 48.5 4
    endloop
  endfacet
  facet normal 0 -1 0
    outer loop
      vertex 37.875 48.5 4
      vertex 37.875 48.5 0
      vertex 48.5 48.5 0
    endloop
  endfacet
  facet normal 0 -1 0
    outer loop
      vertex 48.5 48.5 4
      vertex 37.875 48.5 4
      vertex 48.5 48.5 0
    endloop
  endfacet
  facet normal 0 0 1
    outer loop
      vertex 1.5 48.5 0
      vertex 1.5 1.5 0
      vertex 12.125 1.5 0
    endloop
  endfacet
  facet normal 0 0 1
    outer loop
      vertex 12.125 48.5 0
      vertex 1.5 48.5 0
      vertex 12.125 1.5 0
    endloop
  endfacet
  facet normal 0 0 1
    outer loop
      vertex 13.625 48.5 0
      vertex 13.625 1.5 0
      vertex 24.25 1.5 0
    endloop
  endfacet
  facet normal 0 0 1
    outer loop
      vertex 24.25 48.5 0
      vertex 13.625 48.5 0
      vertex 24.25 1.5 0
    endloop
  endfacet
  facet normal 0 0 1
    outer loop
      vertex 25.75 48.5 0
      vertex 25.75 1.5 0
      vertex 36.375 1.5 0
    endloop
  endfacet
  facet normal 0 0 1
    outer loop
      vertex 36.375 48.5 0
      vertex 25.75 48.5 0
      vertex 36.375 1.5 0
    endloop
  endfacet
  facet normal 0 0 1
    outer loop
      vertex 37.875 48.5 0
      vertex 37.875 1.5 0
      vertex 48.5 1.5 0
    endloop
  endfacet
  facet normal 0 0 1
    outer loop
      vertex 48.5 48.5 0
      vertex 37.875 48.5 0
      vertex 48.5 1.5 0
    endloop
  endfacet
endsolid OpenSCAD_Model
